<svg height="469pt" viewBox="0 0 469.334 469" width="469pt" xmlns="http://www.w3.org/2000/svg"><path d="m234.667969.167969c11.78125 0 21.332031 9.550781 21.332031 21.332031v85.332031h-42.667969v-85.332031c0-11.78125 9.554688-21.332031 21.335938-21.332031zm0 0" fill="#5f5366"/><path d="m213.332031 85.5h42.667969c11.78125 0 21.332031 9.550781 21.332031 21.332031 0 11.785157-9.550781 21.335938-21.332031 21.335938h-42.667969c-11.78125 0-21.332031-9.550781-21.332031-21.335938 0-11.78125 9.550781-21.332031 21.332031-21.332031zm0 0" fill="#403248"/><path d="m213.332031 85.5h21.335938c11.78125 0 21.332031 9.550781 21.332031 21.332031 0 11.785157-9.550781 21.335938-21.332031 21.335938h-21.335938c-11.78125 0-21.332031-9.550781-21.332031-21.335938 0-11.78125 9.550781-21.332031 21.332031-21.332031zm0 0" fill="#5f5366"/><path d="m362.667969 256.167969v-42.667969c0-85.332031-64-106.667969-85.335938-106.667969h-85.332031c-21.332031 0-85.332031 21.335938-85.332031 106.667969v42.667969s0 42.664062-42.667969 42.664062v64h341.332031v-64c-42.664062 0-42.664062-42.664062-42.664062-42.664062zm0 0" fill="#2f2038"/><path d="m320 320.167969h85.332031v21.332031h-85.332031zm0 0" fill="#25152e"/><path d="m277.332031 256.167969v-42.667969c0-85.332031-64-106.667969-85.332031-106.667969s-85.332031 21.335938-85.332031 106.667969v42.667969s0 42.664062-42.667969 42.664062v64h256v-64c-42.667969 0-42.667969-42.664062-42.667969-42.664062zm0 0" fill="#5f5366"/><path d="m106.667969 277.5h170.664062v21.332031h-170.664062zm0 0" fill="#928a97"/><path d="m64 341.5c-42.667969 0-42.667969 42.667969-42.667969 42.667969v42.664062h426.667969v-42.664062c0-42.667969-42.667969-42.667969-42.667969-42.667969zm0 0" fill="#2f2038"/><path d="m277.332031 341.5h-213.332031c-42.667969 0-42.667969 42.667969-42.667969 42.667969v42.664062h298.667969v-42.664062c0-42.667969-42.667969-42.667969-42.667969-42.667969zm0 0" fill="#5f5366"/><path d="m213.332031 149.5 21.335938-21.332031 21.332031 21.332031-21.332031 21.332031zm0 0" fill="#2f2038"/><path d="m256 192.167969 21.332031-21.335938 21.335938 21.335938-21.335938 21.332031zm0 0" fill="#25152e"/><path d="m256 277.5 21.332031-21.332031 21.335938 21.332031-21.335938 21.332031zm0 0" fill="#2f2038"/><path d="m298.667969 234.832031 21.332031-21.332031 21.332031 21.332031-21.332031 21.335938zm0 0" fill="#25152e"/><path d="m298.667969 149.5 21.332031-21.332031 21.332031 21.332031-21.332031 21.332031zm0 0" fill="#25152e"/><path d="m170.667969 192.167969 21.332031-21.335938 21.332031 21.335938-21.332031 21.332031zm0 0" fill="#2f2038"/><path d="m170.667969 277.5 21.332031-21.332031 21.332031 21.332031-21.332031 21.332031zm0 0" fill="#2f2038"/><path d="m213.332031 234.832031 21.335938-21.332031 21.332031 21.332031-21.332031 21.335938zm0 0" fill="#2f2038"/><path d="m128 234.832031 21.332031-21.332031 21.335938 21.332031-21.335938 21.335938zm0 0" fill="#2f2038"/><path d="m128 149.5 21.332031-21.332031 21.335938 21.332031-21.335938 21.332031zm0 0" fill="#2f2038"/><path d="m234.667969 21.5h21.332031v64h-21.332031zm0 0" fill="#403248"/><path d="m213.332031 64.167969h42.667969v21.332031h-42.667969zm0 0" fill="#403248"/><path d="m234.667969 64.167969h21.332031v21.332031h-21.332031zm0 0" fill="#2f2038"/><path d="m469.335938 469.5h-469.335938v-85.332031h469.335938zm0 0" fill="#403248"/><path d="m426.667969 405.5h42.664062v21.332031h-42.664062zm0 0" fill="#25152e"/><path d="m298.667969 469.5h-298.667969v-85.332031h298.667969zm0 0" fill="#5f5366"/><path d="m0 448.167969h298.667969v21.332031h-298.667969zm0 0" fill="#2f2038"/><path d="m0 384.167969h298.667969v21.332031h-298.667969zm0 0" fill="#928a97"/><path d="m320 362.832031h106.667969v21.335938h-106.667969zm0 0" fill="#25152e"/><path d="m64 320.167969h234.667969v21.332031h-234.667969zm0 0" fill="#403248"/><path d="m42.667969 362.832031h256v21.335938h-256zm0 0" fill="#2f2038"/><path d="m64 362.832031h64v21.335938h-64zm0 0" fill="#403248"/><path d="m106.667969 426.832031h64v42.667969h-64zm0 0" fill="#403248"/><path d="m42.667969 384.167969h64v42.664062h-64zm0 0" fill="#928a97"/><path d="m42.667969 384.167969h64v21.332031h-64zm0 0" fill="#aba4ae"/><path d="m170.667969 384.167969h64v42.664062h-64zm0 0" fill="#928a97"/><path d="m170.667969 384.167969h64v21.332031h-64zm0 0" fill="#aba4ae"/><path d="m0 426.832031h42.667969v42.667969h-42.667969zm0 0" fill="#403248"/><path d="m0 448.167969h42.667969v21.332031h-42.667969zm0 0" fill="#25152e"/><path d="m234.667969 426.832031h64v42.667969h-64zm0 0" fill="#403248"/><path d="m106.667969 448.167969h64v21.332031h-64zm0 0" fill="#25152e"/><path d="m234.667969 448.167969h64v21.332031h-64zm0 0" fill="#25152e"/><path d="m64 341.5h64v21.332031h-64zm0 0" fill="#928a97"/><path d="m128 320.167969h64v21.332031h-64zm0 0" fill="#928a97"/><path d="m128 298.832031h64v21.335938h-64zm0 0" fill="#aba4ae"/><path d="m256 320.167969h42.667969v21.332031h-42.667969zm0 0" fill="#928a97"/><path d="m320 320.167969h42.667969v21.332031h-42.667969zm0 0" fill="#2f2038"/><path d="m320 298.832031h42.667969v21.335938h-42.667969zm0 0" fill="#403248"/><path d="m362.667969 362.832031h42.664062v21.335938h-42.664062zm0 0" fill="#2f2038"/><path d="m362.667969 341.5h42.664062v21.332031h-42.664062zm0 0" fill="#403248"/><path d="m256 298.832031h42.667969v21.335938h-42.667969zm0 0" fill="#aba4ae"/><path d="m192 362.832031h64v21.335938h-64zm0 0" fill="#403248"/><path d="m192 341.5h64v21.332031h-64zm0 0" fill="#928a97"/><path d="m298.667969 426.832031h170.664062v42.667969h-170.664062zm0 0" fill="#25152e"/><path d="m298.667969 426.832031h64v42.667969h-64zm0 0" fill="#25152e"/><path d="m298.667969 384.167969h64v42.664062h-64zm0 0" fill="#2f2038"/><path d="m362.667969 384.167969h64v42.664062h-64zm0 0" fill="#2f2038"/><path d="m362.667969 384.167969h64v21.332031h-64zm0 0" fill="#5f5366"/><g fill="#25152e"><path d="m128 234.832031 21.332031-21.332031 10.667969 10.667969-21.332031 21.332031zm0 0"/><path d="m213.332031 234.832031 21.335938-21.332031 10.664062 10.667969-21.332031 21.332031zm0 0"/><path d="m170.667969 192.167969 21.332031-21.335938 10.667969 10.667969-21.335938 21.332031zm0 0"/><path d="m213.332031 149.5 21.335938-21.332031 10.664062 10.664062-21.332031 21.335938zm0 0"/><path d="m128 149.5 21.332031-21.332031 10.667969 10.664062-21.332031 21.335938zm0 0"/><path d="m170.667969 277.5 21.332031-21.332031 10.667969 10.664062-21.335938 21.335938zm0 0"/><path d="m256 277.5 21.332031-21.332031 10.667969 10.664062-21.332031 21.335938zm0 0"/></g></svg>